<mxfile host="65bd71144e">
    <diagram id="ozWuTozkodNHV-JPwqvV" name="Page-1">
        <mxGraphModel dx="1072" dy="1532" grid="1" gridSize="10" guides="1" tooltips="1" connect="1" arrows="1" fold="1" page="1" pageScale="1" pageWidth="1169" pageHeight="827" math="0" shadow="0">
            <root>
                <mxCell id="0"/>
                <mxCell id="1" parent="0"/>
                <mxCell id="71" style="edgeStyle=none;html=1;" parent="1" source="2" target="124" edge="1">
                    <mxGeometry relative="1" as="geometry"/>
                </mxCell>
                <mxCell id="2" value="commande" style="shape=table;startSize=30;container=1;collapsible=0;childLayout=tableLayout;" parent="1" vertex="1">
                    <mxGeometry x="430" y="260" width="160" height="160" as="geometry"/>
                </mxCell>
                <mxCell id="3" value="" style="shape=tableRow;horizontal=0;startSize=0;swimlaneHead=0;swimlaneBody=0;top=0;left=0;bottom=0;right=0;collapsible=0;dropTarget=0;fillColor=none;points=[[0,0.5],[1,0.5]];portConstraint=eastwest;" parent="2" vertex="1">
                    <mxGeometry y="30" width="160" height="65" as="geometry"/>
                </mxCell>
                <mxCell id="4" value="nombrePersonne:int" style="shape=partialRectangle;html=1;whiteSpace=wrap;connectable=0;overflow=hidden;fillColor=none;top=0;left=0;bottom=0;right=0;pointerEvents=1;" parent="3" vertex="1">
                    <mxGeometry width="160" height="65" as="geometry">
                        <mxRectangle width="160" height="65" as="alternateBounds"/>
                    </mxGeometry>
                </mxCell>
                <mxCell id="5" value="" style="shape=tableRow;horizontal=0;startSize=0;swimlaneHead=0;swimlaneBody=0;top=0;left=0;bottom=0;right=0;collapsible=0;dropTarget=0;fillColor=none;points=[[0,0.5],[1,0.5]];portConstraint=eastwest;" parent="2" vertex="1">
                    <mxGeometry y="95" width="160" height="65" as="geometry"/>
                </mxCell>
                <mxCell id="6" value="&lt;div&gt;pizzaIndivuelle()&lt;/div&gt;&lt;div&gt;pizzaMoinsCher()&lt;br&gt;&lt;/div&gt;" style="shape=partialRectangle;html=1;whiteSpace=wrap;connectable=0;overflow=hidden;fillColor=none;top=0;left=0;bottom=0;right=0;pointerEvents=1;" parent="5" vertex="1">
                    <mxGeometry width="160" height="65" as="geometry">
                        <mxRectangle width="160" height="65" as="alternateBounds"/>
                    </mxGeometry>
                </mxCell>
                <mxCell id="18" style="edgeStyle=none;shape=flexArrow;html=1;" parent="1" source="12" target="38" edge="1">
                    <mxGeometry relative="1" as="geometry">
                        <mxPoint x="300" y="320" as="targetPoint"/>
                    </mxGeometry>
                </mxCell>
                <mxCell id="26" style="edgeStyle=none;html=1;entryX=0.75;entryY=0;entryDx=0;entryDy=0;" parent="1" source="12" target="21" edge="1">
                    <mxGeometry relative="1" as="geometry">
                        <mxPoint x="220" y="510" as="targetPoint"/>
                    </mxGeometry>
                </mxCell>
                <mxCell id="12" value="pizza" style="shape=table;startSize=30;container=1;collapsible=0;childLayout=tableLayout;" parent="1" vertex="1">
                    <mxGeometry x="200" y="240" width="160" height="130" as="geometry"/>
                </mxCell>
                <mxCell id="15" value="" style="shape=tableRow;horizontal=0;startSize=0;swimlaneHead=0;swimlaneBody=0;top=0;left=0;bottom=0;right=0;collapsible=0;dropTarget=0;fillColor=none;points=[[0,0.5],[1,0.5]];portConstraint=eastwest;" parent="12" vertex="1">
                    <mxGeometry y="30" width="160" height="50" as="geometry"/>
                </mxCell>
                <mxCell id="16" value="&lt;div&gt;nom&lt;/div&gt;&lt;div&gt;gourmet:boo&lt;/div&gt;&lt;div&gt;classique:booll&lt;br&gt;&lt;/div&gt;" style="shape=partialRectangle;html=1;whiteSpace=wrap;connectable=0;overflow=hidden;fillColor=none;top=0;left=0;bottom=0;right=0;pointerEvents=1;" parent="15" vertex="1">
                    <mxGeometry width="160" height="50" as="geometry">
                        <mxRectangle width="160" height="50" as="alternateBounds"/>
                    </mxGeometry>
                </mxCell>
                <mxCell id="13" value="" style="shape=tableRow;horizontal=0;startSize=0;swimlaneHead=0;swimlaneBody=0;top=0;left=0;bottom=0;right=0;collapsible=0;dropTarget=0;fillColor=none;points=[[0,0.5],[1,0.5]];portConstraint=eastwest;" parent="12" vertex="1">
                    <mxGeometry y="80" width="160" height="50" as="geometry"/>
                </mxCell>
                <mxCell id="14" value="&lt;div&gt;&lt;br&gt;&lt;/div&gt;&lt;div&gt;addTarification()&lt;br&gt;&lt;/div&gt;" style="shape=partialRectangle;html=1;whiteSpace=wrap;connectable=0;overflow=hidden;fillColor=none;top=0;left=0;bottom=0;right=0;pointerEvents=1;" parent="13" vertex="1">
                    <mxGeometry width="160" height="50" as="geometry">
                        <mxRectangle width="160" height="50" as="alternateBounds"/>
                    </mxGeometry>
                </mxCell>
                <mxCell id="21" value="interface ingrÃ©dients" style="shape=table;startSize=30;container=1;collapsible=0;childLayout=tableLayout;" parent="1" vertex="1">
                    <mxGeometry x="140" y="460" width="110" height="110" as="geometry"/>
                </mxCell>
                <mxCell id="22" value="" style="shape=tableRow;horizontal=0;startSize=0;swimlaneHead=0;swimlaneBody=0;top=0;left=0;bottom=0;right=0;collapsible=0;dropTarget=0;fillColor=none;points=[[0,0.5],[1,0.5]];portConstraint=eastwest;" parent="21" vertex="1">
                    <mxGeometry y="30" width="110" height="40" as="geometry"/>
                </mxCell>
                <mxCell id="23" value="&lt;div&gt;type&lt;/div&gt;&lt;div&gt;nom&lt;br&gt;&lt;/div&gt;" style="shape=partialRectangle;html=1;whiteSpace=wrap;connectable=0;overflow=hidden;fillColor=none;top=0;left=0;bottom=0;right=0;pointerEvents=1;" parent="22" vertex="1">
                    <mxGeometry width="110" height="40" as="geometry">
                        <mxRectangle width="110" height="40" as="alternateBounds"/>
                    </mxGeometry>
                </mxCell>
                <mxCell id="24" value="" style="shape=tableRow;horizontal=0;startSize=0;swimlaneHead=0;swimlaneBody=0;top=0;left=0;bottom=0;right=0;collapsible=0;dropTarget=0;fillColor=none;points=[[0,0.5],[1,0.5]];portConstraint=eastwest;" parent="21" vertex="1">
                    <mxGeometry y="70" width="110" height="40" as="geometry"/>
                </mxCell>
                <mxCell id="25" value="" style="shape=partialRectangle;html=1;whiteSpace=wrap;connectable=0;overflow=hidden;fillColor=none;top=0;left=0;bottom=0;right=0;pointerEvents=1;" parent="24" vertex="1">
                    <mxGeometry width="110" height="40" as="geometry">
                        <mxRectangle width="110" height="40" as="alternateBounds"/>
                    </mxGeometry>
                </mxCell>
                <mxCell id="27" value="1..*" style="text;html=1;align=center;verticalAlign=middle;resizable=0;points=[];autosize=1;strokeColor=none;fillColor=none;" parent="1" vertex="1">
                    <mxGeometry x="220" y="430" width="40" height="30" as="geometry"/>
                </mxCell>
                <mxCell id="28" value="tomate" style="shape=table;startSize=30;container=1;collapsible=0;childLayout=tableLayout;" parent="1" vertex="1">
                    <mxGeometry x="150" y="630" width="60" height="110" as="geometry"/>
                </mxCell>
                <mxCell id="29" value="" style="shape=tableRow;horizontal=0;startSize=0;swimlaneHead=0;swimlaneBody=0;top=0;left=0;bottom=0;right=0;collapsible=0;dropTarget=0;fillColor=none;points=[[0,0.5],[1,0.5]];portConstraint=eastwest;" parent="28" vertex="1">
                    <mxGeometry y="30" width="60" height="40" as="geometry"/>
                </mxCell>
                <mxCell id="30" value="" style="shape=partialRectangle;html=1;whiteSpace=wrap;connectable=0;overflow=hidden;fillColor=none;top=0;left=0;bottom=0;right=0;pointerEvents=1;" parent="29" vertex="1">
                    <mxGeometry width="60" height="40" as="geometry">
                        <mxRectangle width="60" height="40" as="alternateBounds"/>
                    </mxGeometry>
                </mxCell>
                <mxCell id="31" value="" style="shape=tableRow;horizontal=0;startSize=0;swimlaneHead=0;swimlaneBody=0;top=0;left=0;bottom=0;right=0;collapsible=0;dropTarget=0;fillColor=none;points=[[0,0.5],[1,0.5]];portConstraint=eastwest;" parent="28" vertex="1">
                    <mxGeometry y="70" width="60" height="40" as="geometry"/>
                </mxCell>
                <mxCell id="32" value="" style="shape=partialRectangle;html=1;whiteSpace=wrap;connectable=0;overflow=hidden;fillColor=none;top=0;left=0;bottom=0;right=0;pointerEvents=1;" parent="31" vertex="1">
                    <mxGeometry width="60" height="40" as="geometry">
                        <mxRectangle width="60" height="40" as="alternateBounds"/>
                    </mxGeometry>
                </mxCell>
                <mxCell id="38" value="interface gout" style="shape=table;startSize=50;container=1;collapsible=0;childLayout=tableLayout;" parent="1" vertex="1">
                    <mxGeometry x="40" y="245" width="100" height="160" as="geometry"/>
                </mxCell>
                <mxCell id="39" value="" style="shape=tableRow;horizontal=0;startSize=0;swimlaneHead=0;swimlaneBody=0;top=0;left=0;bottom=0;right=0;collapsible=0;dropTarget=0;fillColor=none;points=[[0,0.5],[1,0.5]];portConstraint=eastwest;" parent="38" vertex="1">
                    <mxGeometry y="50" width="100" height="55" as="geometry"/>
                </mxCell>
                <mxCell id="40" value="" style="shape=partialRectangle;html=1;whiteSpace=wrap;connectable=0;overflow=hidden;fillColor=none;top=0;left=0;bottom=0;right=0;pointerEvents=1;" parent="39" vertex="1">
                    <mxGeometry width="100" height="55" as="geometry">
                        <mxRectangle width="100" height="55" as="alternateBounds"/>
                    </mxGeometry>
                </mxCell>
                <mxCell id="41" value="" style="shape=tableRow;horizontal=0;startSize=0;swimlaneHead=0;swimlaneBody=0;top=0;left=0;bottom=0;right=0;collapsible=0;dropTarget=0;fillColor=none;points=[[0,0.5],[1,0.5]];portConstraint=eastwest;" parent="38" vertex="1">
                    <mxGeometry y="105" width="100" height="55" as="geometry"/>
                </mxCell>
                <mxCell id="42" value="" style="shape=partialRectangle;html=1;whiteSpace=wrap;connectable=0;overflow=hidden;fillColor=none;top=0;left=0;bottom=0;right=0;pointerEvents=1;" parent="41" vertex="1">
                    <mxGeometry width="100" height="55" as="geometry">
                        <mxRectangle width="100" height="55" as="alternateBounds"/>
                    </mxGeometry>
                </mxCell>
                <mxCell id="47" style="edgeStyle=none;shape=flexArrow;html=1;" parent="1" source="28" target="21" edge="1">
                    <mxGeometry relative="1" as="geometry">
                        <mxPoint x="300" y="600.0028571428571" as="sourcePoint"/>
                        <mxPoint x="340" y="602.86" as="targetPoint"/>
                    </mxGeometry>
                </mxCell>
                <mxCell id="61" style="edgeStyle=none;html=1;" parent="1" source="48" target="56" edge="1">
                    <mxGeometry relative="1" as="geometry"/>
                </mxCell>
                <mxCell id="48" value="tarification" style="shape=table;startSize=30;container=1;collapsible=0;childLayout=tableLayout;" parent="1" vertex="1">
                    <mxGeometry x="130" y="20" width="130" height="130" as="geometry"/>
                </mxCell>
                <mxCell id="49" value="" style="shape=tableRow;horizontal=0;startSize=0;swimlaneHead=0;swimlaneBody=0;top=0;left=0;bottom=0;right=0;collapsible=0;dropTarget=0;fillColor=none;points=[[0,0.5],[1,0.5]];portConstraint=eastwest;" parent="48" vertex="1">
                    <mxGeometry y="30" width="130" height="50" as="geometry"/>
                </mxCell>
                <mxCell id="50" value="prix:â¬" style="shape=partialRectangle;html=1;whiteSpace=wrap;connectable=0;overflow=hidden;fillColor=none;top=0;left=0;bottom=0;right=0;pointerEvents=1;" parent="49" vertex="1">
                    <mxGeometry width="130" height="50" as="geometry">
                        <mxRectangle width="130" height="50" as="alternateBounds"/>
                    </mxGeometry>
                </mxCell>
                <mxCell id="51" value="" style="shape=tableRow;horizontal=0;startSize=0;swimlaneHead=0;swimlaneBody=0;top=0;left=0;bottom=0;right=0;collapsible=0;dropTarget=0;fillColor=none;points=[[0,0.5],[1,0.5]];portConstraint=eastwest;" parent="48" vertex="1">
                    <mxGeometry y="80" width="130" height="50" as="geometry"/>
                </mxCell>
                <mxCell id="52" value="&lt;div&gt;construct(prix,diametre)&lt;br&gt;&lt;/div&gt;&lt;div&gt;prixPerimetre()&lt;/div&gt;&lt;div&gt;prixPart():â¬&lt;br&gt;&lt;/div&gt;" style="shape=partialRectangle;html=1;whiteSpace=wrap;connectable=0;overflow=hidden;fillColor=none;top=0;left=0;bottom=0;right=0;pointerEvents=1;" parent="51" vertex="1">
                    <mxGeometry width="130" height="50" as="geometry">
                        <mxRectangle width="130" height="50" as="alternateBounds"/>
                    </mxGeometry>
                </mxCell>
                <mxCell id="54" style="edgeStyle=none;html=1;" parent="1" source="12" target="48" edge="1">
                    <mxGeometry relative="1" as="geometry">
                        <mxPoint x="770" y="533.6163829787233" as="sourcePoint"/>
                        <mxPoint x="630" y="479.99936170212754" as="targetPoint"/>
                    </mxGeometry>
                </mxCell>
                <mxCell id="56" value="diametre" style="shape=table;startSize=30;container=1;collapsible=0;childLayout=tableLayout;" parent="1" vertex="1">
                    <mxGeometry x="330" y="20" width="140" height="180" as="geometry"/>
                </mxCell>
                <mxCell id="57" value="" style="shape=tableRow;horizontal=0;startSize=0;swimlaneHead=0;swimlaneBody=0;top=0;left=0;bottom=0;right=0;collapsible=0;dropTarget=0;fillColor=none;points=[[0,0.5],[1,0.5]];portConstraint=eastwest;" parent="56" vertex="1">
                    <mxGeometry y="30" width="140" height="75" as="geometry"/>
                </mxCell>
                <mxCell id="58" value="taille:cm" style="shape=partialRectangle;html=1;whiteSpace=wrap;connectable=0;overflow=hidden;fillColor=none;top=0;left=0;bottom=0;right=0;pointerEvents=1;" parent="57" vertex="1">
                    <mxGeometry width="140" height="75" as="geometry">
                        <mxRectangle width="140" height="75" as="alternateBounds"/>
                    </mxGeometry>
                </mxCell>
                <mxCell id="59" value="" style="shape=tableRow;horizontal=0;startSize=0;swimlaneHead=0;swimlaneBody=0;top=0;left=0;bottom=0;right=0;collapsible=0;dropTarget=0;fillColor=none;points=[[0,0.5],[1,0.5]];portConstraint=eastwest;" parent="56" vertex="1">
                    <mxGeometry y="105" width="140" height="75" as="geometry"/>
                </mxCell>
                <mxCell id="60" value="&lt;div&gt;construct(taille,nom)&lt;/div&gt;&lt;div&gt;getPerimetre():cm2&lt;/div&gt;&lt;div&gt;getParts():part&lt;br&gt;&lt;/div&gt;" style="shape=partialRectangle;html=1;whiteSpace=wrap;connectable=0;overflow=hidden;fillColor=none;top=0;left=0;bottom=0;right=0;pointerEvents=1;" parent="59" vertex="1">
                    <mxGeometry width="140" height="75" as="geometry">
                        <mxRectangle width="140" height="75" as="alternateBounds"/>
                    </mxGeometry>
                </mxCell>
                <mxCell id="62" value="3" style="text;html=1;align=center;verticalAlign=middle;resizable=0;points=[];autosize=1;strokeColor=none;fillColor=none;" parent="1" vertex="1">
                    <mxGeometry x="230" y="150" width="30" height="30" as="geometry"/>
                </mxCell>
                <mxCell id="63" value="1" style="text;html=1;align=center;verticalAlign=middle;resizable=0;points=[];autosize=1;strokeColor=none;fillColor=none;" parent="1" vertex="1">
                    <mxGeometry x="300" y="75" width="30" height="30" as="geometry"/>
                </mxCell>
                <mxCell id="72" value="0..*" style="text;html=1;align=center;verticalAlign=middle;resizable=0;points=[];autosize=1;strokeColor=none;fillColor=none;" parent="1" vertex="1">
                    <mxGeometry x="530" y="130" width="40" height="30" as="geometry"/>
                </mxCell>
                <mxCell id="78" style="edgeStyle=none;html=1;" parent="1" source="86" target="56" edge="1">
                    <mxGeometry relative="1" as="geometry"/>
                </mxCell>
                <mxCell id="167" style="edgeStyle=none;html=1;shape=flexArrow;" parent="1" source="97" target="73" edge="1">
                    <mxGeometry relative="1" as="geometry">
                        <mxPoint x="840" y="-300" as="targetPoint"/>
                    </mxGeometry>
                </mxCell>
                <mxCell id="73" value="Â interface Promo" style="shape=table;startSize=30;container=1;collapsible=0;childLayout=tableLayout;" parent="1" vertex="1">
                    <mxGeometry x="640" y="-260" width="180" height="195" as="geometry"/>
                </mxCell>
                <mxCell id="74" value="" style="shape=tableRow;horizontal=0;startSize=0;swimlaneHead=0;swimlaneBody=0;top=0;left=0;bottom=0;right=0;collapsible=0;dropTarget=0;fillColor=none;points=[[0,0.5],[1,0.5]];portConstraint=eastwest;" parent="73" vertex="1">
                    <mxGeometry y="30" width="180" height="83" as="geometry"/>
                </mxCell>
                <mxCell id="75" value="&lt;div&gt;gourmet:int&lt;/div&gt;&lt;div&gt;nombrePizza:intl&lt;/div&gt;" style="shape=partialRectangle;html=1;whiteSpace=wrap;connectable=0;overflow=hidden;fillColor=none;top=0;left=0;bottom=0;right=0;pointerEvents=1;" parent="74" vertex="1">
                    <mxGeometry width="180" height="83" as="geometry">
                        <mxRectangle width="180" height="83" as="alternateBounds"/>
                    </mxGeometry>
                </mxCell>
                <mxCell id="76" value="" style="shape=tableRow;horizontal=0;startSize=0;swimlaneHead=0;swimlaneBody=0;top=0;left=0;bottom=0;right=0;collapsible=0;dropTarget=0;fillColor=none;points=[[0,0.5],[1,0.5]];portConstraint=eastwest;" parent="73" vertex="1">
                    <mxGeometry y="113" width="180" height="82" as="geometry"/>
                </mxCell>
                <mxCell id="77" value="&lt;div&gt;construct( gourmet,nombrepizza))&lt;/div&gt;&lt;div&gt;&lt;div&gt;ckeckValider(individuelle[]):?int&lt;/div&gt;&lt;/div&gt;" style="shape=partialRectangle;html=1;whiteSpace=wrap;connectable=0;overflow=hidden;fillColor=none;top=0;left=0;bottom=0;right=0;pointerEvents=1;" parent="76" vertex="1">
                    <mxGeometry width="180" height="82" as="geometry">
                        <mxRectangle width="180" height="82" as="alternateBounds"/>
                    </mxGeometry>
                </mxCell>
                <mxCell id="79" value="1" style="text;html=1;align=center;verticalAlign=middle;resizable=0;points=[];autosize=1;strokeColor=none;fillColor=none;" parent="1" vertex="1">
                    <mxGeometry x="385" y="-20" width="30" height="30" as="geometry"/>
                </mxCell>
                <mxCell id="86" value="fixe" style="shape=table;startSize=30;container=1;collapsible=0;childLayout=tableLayout;" parent="1" vertex="1">
                    <mxGeometry x="317.5" y="-240" width="120" height="140" as="geometry"/>
                </mxCell>
                <mxCell id="87" value="" style="shape=tableRow;horizontal=0;startSize=0;swimlaneHead=0;swimlaneBody=0;top=0;left=0;bottom=0;right=0;collapsible=0;dropTarget=0;fillColor=none;points=[[0,0.5],[1,0.5]];portConstraint=eastwest;" parent="86" vertex="1">
                    <mxGeometry y="30" width="120" height="55" as="geometry"/>
                </mxCell>
                <mxCell id="88" value="&lt;div&gt;prix&lt;/div&gt;&lt;br&gt;&lt;div&gt;&lt;br&gt;&lt;/div&gt;" style="shape=partialRectangle;html=1;whiteSpace=wrap;connectable=0;overflow=hidden;fillColor=none;top=0;left=0;bottom=0;right=0;pointerEvents=1;" parent="87" vertex="1">
                    <mxGeometry width="120" height="55" as="geometry">
                        <mxRectangle width="120" height="55" as="alternateBounds"/>
                    </mxGeometry>
                </mxCell>
                <mxCell id="89" value="" style="shape=tableRow;horizontal=0;startSize=0;swimlaneHead=0;swimlaneBody=0;top=0;left=0;bottom=0;right=0;collapsible=0;dropTarget=0;fillColor=none;points=[[0,0.5],[1,0.5]];portConstraint=eastwest;" parent="86" vertex="1">
                    <mxGeometry y="85" width="120" height="55" as="geometry"/>
                </mxCell>
                <mxCell id="90" value="construct(prix)" style="shape=partialRectangle;html=1;whiteSpace=wrap;connectable=0;overflow=hidden;fillColor=none;top=0;left=0;bottom=0;right=0;pointerEvents=1;" parent="89" vertex="1">
                    <mxGeometry width="120" height="55" as="geometry">
                        <mxRectangle width="120" height="55" as="alternateBounds"/>
                    </mxGeometry>
                </mxCell>
                <mxCell id="97" value="variable" style="shape=table;startSize=30;container=1;collapsible=0;childLayout=tableLayout;" parent="1" vertex="1">
                    <mxGeometry x="880" y="-230" width="120" height="140" as="geometry"/>
                </mxCell>
                <mxCell id="98" value="" style="shape=tableRow;horizontal=0;startSize=0;swimlaneHead=0;swimlaneBody=0;top=0;left=0;bottom=0;right=0;collapsible=0;dropTarget=0;fillColor=none;points=[[0,0.5],[1,0.5]];portConstraint=eastwest;" parent="97" vertex="1">
                    <mxGeometry y="30" width="120" height="55" as="geometry"/>
                </mxCell>
                <mxCell id="99" value="" style="shape=partialRectangle;html=1;whiteSpace=wrap;connectable=0;overflow=hidden;fillColor=none;top=0;left=0;bottom=0;right=0;pointerEvents=1;" parent="98" vertex="1">
                    <mxGeometry width="120" height="55" as="geometry">
                        <mxRectangle width="120" height="55" as="alternateBounds"/>
                    </mxGeometry>
                </mxCell>
                <mxCell id="100" value="" style="shape=tableRow;horizontal=0;startSize=0;swimlaneHead=0;swimlaneBody=0;top=0;left=0;bottom=0;right=0;collapsible=0;dropTarget=0;fillColor=none;points=[[0,0.5],[1,0.5]];portConstraint=eastwest;" parent="97" vertex="1">
                    <mxGeometry y="85" width="120" height="55" as="geometry"/>
                </mxCell>
                <mxCell id="101" value="" style="shape=partialRectangle;html=1;whiteSpace=wrap;connectable=0;overflow=hidden;fillColor=none;top=0;left=0;bottom=0;right=0;pointerEvents=1;" parent="100" vertex="1">
                    <mxGeometry width="120" height="55" as="geometry">
                        <mxRectangle width="120" height="55" as="alternateBounds"/>
                    </mxGeometry>
                </mxCell>
                <mxCell id="133" style="edgeStyle=none;html=1;" parent="1" source="171" target="124" edge="1">
                    <mxGeometry relative="1" as="geometry"/>
                </mxCell>
                <mxCell id="129" style="edgeStyle=none;html=1;" parent="1" source="124" target="56" edge="1">
                    <mxGeometry relative="1" as="geometry"/>
                </mxCell>
                <mxCell id="130" style="edgeStyle=none;html=1;" parent="1" source="124" target="12" edge="1">
                    <mxGeometry relative="1" as="geometry"/>
                </mxCell>
                <mxCell id="124" value="individuelle" style="shape=table;startSize=30;container=1;collapsible=0;childLayout=tableLayout;" parent="1" vertex="1">
                    <mxGeometry x="505" y="10" width="170" height="110" as="geometry"/>
                </mxCell>
                <mxCell id="125" value="" style="shape=tableRow;horizontal=0;startSize=0;swimlaneHead=0;swimlaneBody=0;top=0;left=0;bottom=0;right=0;collapsible=0;dropTarget=0;fillColor=none;points=[[0,0.5],[1,0.5]];portConstraint=eastwest;" parent="124" vertex="1">
                    <mxGeometry y="30" width="170" height="40" as="geometry"/>
                </mxCell>
                <mxCell id="126" value="prix:int" style="shape=partialRectangle;html=1;whiteSpace=wrap;connectable=0;overflow=hidden;fillColor=none;top=0;left=0;bottom=0;right=0;pointerEvents=1;" parent="125" vertex="1">
                    <mxGeometry width="170" height="40" as="geometry">
                        <mxRectangle width="170" height="40" as="alternateBounds"/>
                    </mxGeometry>
                </mxCell>
                <mxCell id="127" value="" style="shape=tableRow;horizontal=0;startSize=0;swimlaneHead=0;swimlaneBody=0;top=0;left=0;bottom=0;right=0;collapsible=0;dropTarget=0;fillColor=none;points=[[0,0.5],[1,0.5]];portConstraint=eastwest;" parent="124" vertex="1">
                    <mxGeometry y="70" width="170" height="40" as="geometry"/>
                </mxCell>
                <mxCell id="128" value="&lt;div&gt;construct(diametre,gout)&lt;/div&gt;&lt;div&gt;&lt;br&gt;&lt;/div&gt;" style="shape=partialRectangle;html=1;whiteSpace=wrap;connectable=0;overflow=hidden;fillColor=none;top=0;left=0;bottom=0;right=0;pointerEvents=1;" parent="127" vertex="1">
                    <mxGeometry width="170" height="40" as="geometry">
                        <mxRectangle width="170" height="40" as="alternateBounds"/>
                    </mxGeometry>
                </mxCell>
                <mxCell id="131" value="1" style="text;html=1;align=center;verticalAlign=middle;resizable=0;points=[];autosize=1;strokeColor=none;fillColor=none;" parent="1" vertex="1">
                    <mxGeometry x="475" y="85" width="30" height="30" as="geometry"/>
                </mxCell>
                <mxCell id="132" value="1" style="text;html=1;align=center;verticalAlign=middle;resizable=0;points=[];autosize=1;strokeColor=none;fillColor=none;" parent="1" vertex="1">
                    <mxGeometry x="310" y="240" width="30" height="30" as="geometry"/>
                </mxCell>
                <mxCell id="134" value="1..3" style="text;html=1;align=center;verticalAlign=middle;resizable=0;points=[];autosize=1;strokeColor=none;fillColor=none;" parent="1" vertex="1">
                    <mxGeometry x="690" y="85" width="40" height="30" as="geometry"/>
                </mxCell>
                <mxCell id="140" style="edgeStyle=none;html=1;" parent="1" source="135" target="171" edge="1">
                    <mxGeometry relative="1" as="geometry">
                        <mxPoint x="818.3333333333333" y="125" as="targetPoint"/>
                    </mxGeometry>
                </mxCell>
                <mxCell id="146" style="edgeStyle=none;html=1;" parent="1" source="135" target="124" edge="1">
                    <mxGeometry relative="1" as="geometry"/>
                </mxCell>
                <mxCell id="135" value="devis" style="shape=table;startSize=30;container=1;collapsible=0;childLayout=tableLayout;" parent="1" vertex="1">
                    <mxGeometry x="630" y="220" width="190" height="230" as="geometry"/>
                </mxCell>
                <mxCell id="136" value="" style="shape=tableRow;horizontal=0;startSize=0;swimlaneHead=0;swimlaneBody=0;top=0;left=0;bottom=0;right=0;collapsible=0;dropTarget=0;fillColor=none;points=[[0,0.5],[1,0.5]];portConstraint=eastwest;" parent="135" vertex="1">
                    <mxGeometry y="30" width="190" height="100" as="geometry"/>
                </mxCell>
                <mxCell id="137" value="prix" style="shape=partialRectangle;html=1;whiteSpace=wrap;connectable=0;overflow=hidden;fillColor=none;top=0;left=0;bottom=0;right=0;pointerEvents=1;" parent="136" vertex="1">
                    <mxGeometry width="190" height="100" as="geometry">
                        <mxRectangle width="190" height="100" as="alternateBounds"/>
                    </mxGeometry>
                </mxCell>
                <mxCell id="138" value="" style="shape=tableRow;horizontal=0;startSize=0;swimlaneHead=0;swimlaneBody=0;top=0;left=0;bottom=0;right=0;collapsible=0;dropTarget=0;fillColor=none;points=[[0,0.5],[1,0.5]];portConstraint=eastwest;" parent="135" vertex="1">
                    <mxGeometry y="130" width="190" height="100" as="geometry"/>
                </mxCell>
                <mxCell id="139" value="construct(individuelles[])&lt;br&gt;&lt;div&gt;&lt;br&gt;&lt;/div&gt;" style="shape=partialRectangle;html=1;whiteSpace=wrap;connectable=0;overflow=hidden;fillColor=none;top=0;left=0;bottom=0;right=0;pointerEvents=1;" parent="138" vertex="1">
                    <mxGeometry width="190" height="100" as="geometry">
                        <mxRectangle width="190" height="100" as="alternateBounds"/>
                    </mxGeometry>
                </mxCell>
                <mxCell id="141" value="0..*" style="text;html=1;align=center;verticalAlign=middle;resizable=0;points=[];autosize=1;strokeColor=none;fillColor=none;" parent="1" vertex="1">
                    <mxGeometry x="737.5" y="140" width="40" height="30" as="geometry"/>
                </mxCell>
                <mxCell id="147" value="0..*" style="text;html=1;align=center;verticalAlign=middle;resizable=0;points=[];autosize=1;strokeColor=none;fillColor=none;" parent="1" vertex="1">
                    <mxGeometry x="600" y="130" width="40" height="30" as="geometry"/>
                </mxCell>
                <mxCell id="164" style="edgeStyle=none;html=1;" parent="1" source="155" target="12" edge="1">
                    <mxGeometry relative="1" as="geometry"/>
                </mxCell>
                <mxCell id="155" value="menu" style="shape=table;startSize=30;container=1;collapsible=0;childLayout=tableLayout;" parent="1" vertex="1">
                    <mxGeometry x="317.5" y="450" width="152.5" height="110" as="geometry"/>
                </mxCell>
                <mxCell id="156" value="" style="shape=tableRow;horizontal=0;startSize=0;swimlaneHead=0;swimlaneBody=0;top=0;left=0;bottom=0;right=0;collapsible=0;dropTarget=0;fillColor=none;points=[[0,0.5],[1,0.5]];portConstraint=eastwest;" parent="155" vertex="1">
                    <mxGeometry y="30" width="152.5" height="40" as="geometry"/>
                </mxCell>
                <mxCell id="157" value="" style="shape=partialRectangle;html=1;whiteSpace=wrap;connectable=0;overflow=hidden;fillColor=none;top=0;left=0;bottom=0;right=0;pointerEvents=1;" parent="156" vertex="1">
                    <mxGeometry width="153" height="40" as="geometry">
                        <mxRectangle width="153" height="40" as="alternateBounds"/>
                    </mxGeometry>
                </mxCell>
                <mxCell id="158" value="" style="shape=tableRow;horizontal=0;startSize=0;swimlaneHead=0;swimlaneBody=0;top=0;left=0;bottom=0;right=0;collapsible=0;dropTarget=0;fillColor=none;points=[[0,0.5],[1,0.5]];portConstraint=eastwest;" parent="155" vertex="1">
                    <mxGeometry y="70" width="152.5" height="40" as="geometry"/>
                </mxCell>
                <mxCell id="159" value="getPizza(int id)" style="shape=partialRectangle;html=1;whiteSpace=wrap;connectable=0;overflow=hidden;fillColor=none;top=0;left=0;bottom=0;right=0;pointerEvents=1;" parent="158" vertex="1">
                    <mxGeometry width="153" height="40" as="geometry">
                        <mxRectangle width="153" height="40" as="alternateBounds"/>
                    </mxGeometry>
                </mxCell>
                <mxCell id="165" value="*" style="text;html=1;align=center;verticalAlign=middle;resizable=0;points=[];autosize=1;strokeColor=none;fillColor=none;" parent="1" vertex="1">
                    <mxGeometry x="335" y="365" width="30" height="30" as="geometry"/>
                </mxCell>
                <mxCell id="166" style="edgeStyle=none;html=1;shape=flexArrow;" parent="1" source="86" target="73" edge="1">
                    <mxGeometry relative="1" as="geometry">
                        <mxPoint x="580" y="-230" as="targetPoint"/>
                    </mxGeometry>
                </mxCell>
                <mxCell id="176" style="edgeStyle=none;html=1;" parent="1" source="171" target="73" edge="1">
                    <mxGeometry relative="1" as="geometry"/>
                </mxCell>
                <mxCell id="171" value="association" style="shape=table;startSize=30;container=1;collapsible=0;childLayout=tableLayout;" parent="1" vertex="1">
                    <mxGeometry x="760" width="160" height="140" as="geometry"/>
                </mxCell>
                <mxCell id="172" value="" style="shape=tableRow;horizontal=0;startSize=0;swimlaneHead=0;swimlaneBody=0;top=0;left=0;bottom=0;right=0;collapsible=0;dropTarget=0;fillColor=none;points=[[0,0.5],[1,0.5]];portConstraint=eastwest;" parent="171" vertex="1">
                    <mxGeometry y="30" width="160" height="55" as="geometry"/>
                </mxCell>
                <mxCell id="173" value="prix:int" style="shape=partialRectangle;html=1;whiteSpace=wrap;connectable=0;overflow=hidden;fillColor=none;top=0;left=0;bottom=0;right=0;pointerEvents=1;" parent="172" vertex="1">
                    <mxGeometry width="160" height="55" as="geometry">
                        <mxRectangle width="160" height="55" as="alternateBounds"/>
                    </mxGeometry>
                </mxCell>
                <mxCell id="174" value="" style="shape=tableRow;horizontal=0;startSize=0;swimlaneHead=0;swimlaneBody=0;top=0;left=0;bottom=0;right=0;collapsible=0;dropTarget=0;fillColor=none;points=[[0,0.5],[1,0.5]];portConstraint=eastwest;" parent="171" vertex="1">
                    <mxGeometry y="85" width="160" height="55" as="geometry"/>
                </mxCell>
                <mxCell id="175" value="&lt;div&gt;construct(promo)&lt;/div&gt;&lt;div&gt;setIndividuelles(individuelle[]);bool&lt;/div&gt;&lt;div&gt;&lt;br&gt;&lt;/div&gt;" style="shape=partialRectangle;html=1;whiteSpace=wrap;connectable=0;overflow=hidden;fillColor=none;top=0;left=0;bottom=0;right=0;pointerEvents=1;" parent="174" vertex="1">
                    <mxGeometry width="160" height="55" as="geometry">
                        <mxRectangle width="160" height="55" as="alternateBounds"/>
                    </mxGeometry>
                </mxCell>
                <mxCell id="177" value="1" style="text;html=1;align=center;verticalAlign=middle;resizable=0;points=[];autosize=1;strokeColor=none;fillColor=none;" parent="1" vertex="1">
                    <mxGeometry x="795" y="-65" width="30" height="30" as="geometry"/>
                </mxCell>
            </root>
        </mxGraphModel>
    </diagram>
</mxfile>